<mxfile host="app.diagrams.net" modified="2023-10-11T08:56:55.929Z" agent="Mozilla/5.0 (Windows NT 10.0; Win64; x64) AppleWebKit/537.36 (KHTML, like Gecko) Chrome/117.0.0.0 Safari/537.36" etag="pmPQ8oD_ANZNRgDhz5QW" version="22.0.4" type="github">
  <diagram name="Page-1" id="9361dd3d-8414-5efd-6122-117bd74ce7a7">
    <mxGraphModel dx="1462" dy="898" grid="1" gridSize="10" guides="1" tooltips="1" connect="1" arrows="1" fold="1" page="0" pageScale="1.5" pageWidth="826" pageHeight="1169" background="none" math="0" shadow="0">
      <root>
        <mxCell id="0" />
        <mxCell id="1" parent="0" />
        <mxCell id="2" value="" style="fillColor=#CC4125;strokeColor=#660000;fontSize=16;" parent="1" vertex="1">
          <mxGeometry x="347.5" y="220" width="10" height="160" as="geometry" />
        </mxCell>
        <mxCell id="4" value="前端" style="shadow=1;fillColor=#A2C4C9;strokeColor=none;fontSize=16;" parent="1" vertex="1">
          <mxGeometry x="300" y="90" width="105" height="50" as="geometry" />
        </mxCell>
        <mxCell id="7" value="后端主业务" style="shadow=1;fillColor=#A2C4C9;strokeColor=none;fontSize=16;" parent="1" vertex="1">
          <mxGeometry x="500" y="90" width="105" height="50" as="geometry" />
        </mxCell>
        <mxCell id="8" value="" style="edgeStyle=none;endArrow=none;dashed=1;fontSize=16;" parent="1" source="7" edge="1">
          <mxGeometry x="272.3350694444445" y="165" width="100" height="100" as="geometry">
            <mxPoint x="564.7588734567901" y="140" as="sourcePoint" />
            <mxPoint x="565.0000000000002" y="210" as="targetPoint" />
          </mxGeometry>
        </mxCell>
        <mxCell id="30" value="判题服务" style="shadow=1;fillColor=#A2C4C9;strokeColor=none;fontSize=16;" parent="1" vertex="1">
          <mxGeometry x="890" y="90" width="105" height="50" as="geometry" />
        </mxCell>
        <mxCell id="33" value="" style="edgeStyle=elbowEdgeStyle;elbow=horizontal;endArrow=none;dashed=1;fontSize=16;" parent="1" source="4" target="2" edge="1">
          <mxGeometry x="230.00000000000003" y="310" width="100" height="100" as="geometry">
            <mxPoint x="377.5" y="440" as="sourcePoint" />
            <mxPoint x="477.5" y="340" as="targetPoint" />
          </mxGeometry>
        </mxCell>
        <mxCell id="42" value="" style="fillColor=#CC4125;strokeColor=#660000;fontSize=16;" parent="1" vertex="1">
          <mxGeometry x="347.5" y="390" width="10" height="220" as="geometry" />
        </mxCell>
        <mxCell id="44" value="" style="edgeStyle=none;dashed=1;endArrow=none;fontSize=16;" parent="1" source="2" target="42" edge="1">
          <mxGeometry x="50" y="300" width="100" height="100" as="geometry">
            <mxPoint x="197.5" y="430" as="sourcePoint" />
            <mxPoint x="297.5" y="330" as="targetPoint" />
          </mxGeometry>
        </mxCell>
        <mxCell id="50" value="" style="edgeStyle=none;endArrow=none;dashed=1;fontSize=16;" parent="1" source="30" edge="1">
          <mxGeometry x="956.5711805555559" y="205" width="100" height="100" as="geometry">
            <mxPoint x="969.2361111111113" y="180" as="sourcePoint" />
            <mxPoint x="942.5" y="498.33333333333326" as="targetPoint" />
          </mxGeometry>
        </mxCell>
        <mxCell id="64" value="代码沙箱" style="shadow=1;fillColor=#A2C4C9;strokeColor=none;fontSize=16;" parent="1" vertex="1">
          <mxGeometry x="1090" y="90" width="105" height="50" as="geometry" />
        </mxCell>
        <mxCell id="65" value="" style="edgeStyle=none;endArrow=none;dashed=1;fontSize=16;" parent="1" source="64" edge="1">
          <mxGeometry x="1174.0711805555559" y="210" width="100" height="100" as="geometry">
            <mxPoint x="1000" y="145" as="sourcePoint" />
            <mxPoint x="1132.5" y="670" as="targetPoint" />
            <Array as="points">
              <mxPoint x="1150" y="660" />
            </Array>
          </mxGeometry>
        </mxCell>
        <mxCell id="71" value="rt submit_changes" style="rounded=1;fontStyle=1;fillColor=#FFD966;strokeColor=none;fontSize=16;" parent="1" vertex="1">
          <mxGeometry x="50" y="20" width="150" height="30" as="geometry" />
        </mxCell>
        <mxCell id="auu_Fdrg2u2LA4y-WMry-90" value="" style="edgeStyle=none;endArrow=none;dashed=1;fontSize=16;" edge="1" parent="1" source="auu_Fdrg2u2LA4y-WMry-93">
          <mxGeometry x="272.3350694444445" y="165" width="100" height="100" as="geometry">
            <mxPoint x="565.5" y="140" as="sourcePoint" />
            <mxPoint x="550" y="610" as="targetPoint" />
          </mxGeometry>
        </mxCell>
        <mxCell id="auu_Fdrg2u2LA4y-WMry-94" value="" style="edgeStyle=none;endArrow=none;dashed=1;fontSize=16;" edge="1" parent="1" source="7" target="auu_Fdrg2u2LA4y-WMry-93">
          <mxGeometry x="272.3350694444445" y="165" width="100" height="100" as="geometry">
            <mxPoint x="565.5" y="140" as="sourcePoint" />
            <mxPoint x="567.5" y="620" as="targetPoint" />
          </mxGeometry>
        </mxCell>
        <mxCell id="auu_Fdrg2u2LA4y-WMry-124" style="edgeStyle=orthogonalEdgeStyle;rounded=0;orthogonalLoop=1;jettySize=auto;html=1;exitX=1;exitY=0.75;exitDx=0;exitDy=0;" edge="1" parent="1" source="auu_Fdrg2u2LA4y-WMry-93">
          <mxGeometry relative="1" as="geometry">
            <mxPoint x="750" y="360.3333333333335" as="targetPoint" />
          </mxGeometry>
        </mxCell>
        <mxCell id="auu_Fdrg2u2LA4y-WMry-93" value="" style="fillColor=#CC4125;strokeColor=#660000;fontSize=16;" vertex="1" parent="1">
          <mxGeometry x="547.5" y="180" width="10" height="240" as="geometry" />
        </mxCell>
        <mxCell id="auu_Fdrg2u2LA4y-WMry-105" value="Actor" style="shape=umlActor;verticalLabelPosition=bottom;verticalAlign=top;html=1;fontSize=16;" vertex="1" parent="1">
          <mxGeometry x="200" y="90" width="30" height="60" as="geometry" />
        </mxCell>
        <mxCell id="auu_Fdrg2u2LA4y-WMry-108" value="" style="edgeStyle=none;endArrow=none;dashed=1;fontSize=16;" edge="1" parent="1" source="30">
          <mxGeometry x="956.5711805555559" y="205" width="100" height="100" as="geometry">
            <mxPoint x="942.5" y="140" as="sourcePoint" />
            <mxPoint x="942.5" y="660" as="targetPoint" />
          </mxGeometry>
        </mxCell>
        <mxCell id="auu_Fdrg2u2LA4y-WMry-112" value="" style="edgeStyle=none;endArrow=none;dashed=1;fontSize=16;" edge="1" source="auu_Fdrg2u2LA4y-WMry-113" parent="1">
          <mxGeometry x="272.3350694444445" y="165" width="100" height="100" as="geometry">
            <mxPoint x="214.50448275862072" y="190" as="sourcePoint" />
            <mxPoint x="215.5" y="640" as="targetPoint" />
          </mxGeometry>
        </mxCell>
        <mxCell id="auu_Fdrg2u2LA4y-WMry-114" value="" style="edgeStyle=none;endArrow=none;dashed=1;fontSize=16;" edge="1" parent="1" target="auu_Fdrg2u2LA4y-WMry-113">
          <mxGeometry x="272.3350694444445" y="165" width="100" height="100" as="geometry">
            <mxPoint x="214.50448275862072" y="190" as="sourcePoint" />
            <mxPoint x="215.5" y="640" as="targetPoint" />
          </mxGeometry>
        </mxCell>
        <mxCell id="auu_Fdrg2u2LA4y-WMry-113" value="" style="fillColor=#CC4125;strokeColor=#660000;fontSize=16;" vertex="1" parent="1">
          <mxGeometry x="210" y="220" width="10" height="240" as="geometry" />
        </mxCell>
        <mxCell id="auu_Fdrg2u2LA4y-WMry-115" value="" style="endArrow=classic;html=1;rounded=0;entryX=0;entryY=0.25;entryDx=0;entryDy=0;exitX=0.217;exitY=0.147;exitDx=0;exitDy=0;exitPerimeter=0;fontSize=16;" edge="1" parent="1" source="auu_Fdrg2u2LA4y-WMry-113" target="2">
          <mxGeometry width="50" height="50" relative="1" as="geometry">
            <mxPoint x="220" y="250" as="sourcePoint" />
            <mxPoint x="270" y="200" as="targetPoint" />
          </mxGeometry>
        </mxCell>
        <mxCell id="auu_Fdrg2u2LA4y-WMry-116" value="&lt;font style=&quot;font-size: 16px;&quot;&gt;1.登入&lt;/font&gt;" style="edgeLabel;html=1;align=center;verticalAlign=middle;resizable=0;points=[];fontSize=16;" vertex="1" connectable="0" parent="auu_Fdrg2u2LA4y-WMry-115">
          <mxGeometry x="-0.0388" y="2" relative="1" as="geometry">
            <mxPoint as="offset" />
          </mxGeometry>
        </mxCell>
        <mxCell id="auu_Fdrg2u2LA4y-WMry-118" value="数据库" style="shadow=1;fillColor=#A2C4C9;strokeColor=none;fontSize=16;" vertex="1" parent="1">
          <mxGeometry x="1280" y="90" width="105" height="50" as="geometry" />
        </mxCell>
        <mxCell id="auu_Fdrg2u2LA4y-WMry-119" value="" style="edgeStyle=none;endArrow=none;dashed=1;fontSize=16;" edge="1" source="auu_Fdrg2u2LA4y-WMry-118" parent="1">
          <mxGeometry x="1174.0711805555559" y="210" width="100" height="100" as="geometry">
            <mxPoint x="1200" y="145" as="sourcePoint" />
            <mxPoint x="1332.5" y="670" as="targetPoint" />
          </mxGeometry>
        </mxCell>
        <mxCell id="auu_Fdrg2u2LA4y-WMry-120" value="消息队列" style="shadow=1;fillColor=#A2C4C9;strokeColor=none;fontSize=16;" vertex="1" parent="1">
          <mxGeometry x="700" y="90" width="105" height="50" as="geometry" />
        </mxCell>
        <mxCell id="auu_Fdrg2u2LA4y-WMry-121" value="" style="edgeStyle=none;endArrow=none;dashed=1;fontSize=16;" edge="1" source="auu_Fdrg2u2LA4y-WMry-120" parent="1">
          <mxGeometry x="956.5711805555559" y="205" width="100" height="100" as="geometry">
            <mxPoint x="779.2361111111113" y="180" as="sourcePoint" />
            <mxPoint x="752.5" y="498.33333333333326" as="targetPoint" />
          </mxGeometry>
        </mxCell>
        <mxCell id="auu_Fdrg2u2LA4y-WMry-122" value="" style="edgeStyle=none;endArrow=none;dashed=1;fontSize=16;" edge="1" source="auu_Fdrg2u2LA4y-WMry-120" parent="1">
          <mxGeometry x="956.5711805555559" y="205" width="100" height="100" as="geometry">
            <mxPoint x="752.5" y="140" as="sourcePoint" />
            <mxPoint x="752.5" y="660" as="targetPoint" />
          </mxGeometry>
        </mxCell>
        <mxCell id="auu_Fdrg2u2LA4y-WMry-123" style="edgeStyle=orthogonalEdgeStyle;rounded=0;orthogonalLoop=1;jettySize=auto;html=1;entryX=-0.033;entryY=0.446;entryDx=0;entryDy=0;entryPerimeter=0;" edge="1" parent="1" source="2" target="auu_Fdrg2u2LA4y-WMry-93">
          <mxGeometry relative="1" as="geometry" />
        </mxCell>
        <mxCell id="auu_Fdrg2u2LA4y-WMry-125" value="" style="fillColor=#CC4125;strokeColor=#660000;fontSize=16;" vertex="1" parent="1">
          <mxGeometry x="747.5" y="200" width="10" height="240" as="geometry" />
        </mxCell>
      </root>
    </mxGraphModel>
  </diagram>
</mxfile>
